# xmcd CD database file
#
# Track frame offsets:
#	150
#	30532
#	45840
#	69762
#	82300
#	100292
#	116672
#	142702
#	171985
#	183455
#	209790
#	228882
#
# Disc length: 3291 seconds
#
# Revision: 0
# Processed by: cddbd v1.5.1PL0 Copyright (c) Steve Scherf et al.
# Submitted via: CDex 1.51
#
DISCID=9e0cd90c
DTITLE=Herb Ohta - Herb Ohta-Ukulele Wave
DYEAR=1900
DGENRE=Hawaii
TTITLE0=Wave
TTITLE1=Rhapsody In Blue
TTITLE2=Ukulele Walk
TTITLE3=With Amor
TTITLE4=How High The Moon
TTITLE5=Smile
TTITLE6=Sweet Someone
TTITLE7=The Girl From Ipanema
TTITLE8=Maria Elena
TTITLE9=Carnival
TTITLE10=La Mer
TTITLE11=Clair De Lune
EXTD=
EXTT0=
EXTT1=
EXTT2=
EXTT3=
EXTT4=
EXTT5=
EXTT6=
EXTT7=
EXTT8=
EXTT9=
EXTT10=
EXTT11=
PLAYORDER=
